<svg width="558" height="700" viewBox="0 0 558 700" fill="none" xmlns="http://www.w3.org/2000/svg">
<rect width="558" height="700" fill="white"/>
<g clip-path="url(#clip0)">
<path d="M159.584 134.272H461.642V509.092H159.584V134.272Z" fill="#F6F6F6"/>
<path d="M159.584 508.643L159.584 541.507C159.58 545.038 160.272 548.535 161.621 551.797C162.97 555.06 164.95 558.024 167.446 560.52C169.943 563.017 172.907 564.996 176.17 566.345C179.432 567.694 182.929 568.387 186.459 568.383H434.767C438.297 568.387 441.794 567.694 445.056 566.345C448.319 564.996 451.283 563.017 453.78 560.52C456.276 558.024 458.255 555.06 459.605 551.797C460.954 548.535 461.646 545.038 461.642 541.507L461.642 508.643H159.584Z" fill="black"/>
<path d="M461.642 134.272V105.39C461.646 101.859 460.954 98.3627 459.605 95.1002C458.255 91.8376 456.276 88.8733 453.78 86.3769C451.283 83.8804 448.319 81.901 445.056 80.5519C441.794 79.2028 438.297 78.5105 434.767 78.5147H186.459C182.929 78.5105 179.432 79.2028 176.17 80.5519C172.907 81.901 169.943 83.8804 167.446 86.3769C164.95 88.8733 162.97 91.8376 161.621 95.1002C160.272 98.3627 159.58 101.859 159.584 105.39V134.272H461.642Z" fill="black"/>
<path d="M358.717 333.405H163.567V345.353H358.717V333.405Z" fill="white"/>
<path d="M434.388 428.989H239.237V440.937H434.388V428.989Z" fill="#F6F6F6"/>
<path d="M243.22 154.186H159.584V166.134H243.22V154.186Z" fill="white"/>
<path d="M369.748 304.126L246.353 180.731L237.904 189.18L361.299 312.575L369.748 304.126Z" fill="white"/>
<path d="M434.388 299.543H361.961V310.377H434.388V299.543Z" fill="white"/>
<path d="M247.203 134.272H235.255V508.643H247.203V134.272Z" fill="white"/>
<path d="M366.683 305.527H354.735V508.643H366.683V305.527Z" fill="white"/>
<rect x="219.324" y="417.042" width="187.185" height="75.6706" fill="#EEEEEE"/>
<path d="M308.735 526.526C312.431 526.454 316.022 527.764 318.804 530.199C321.586 532.634 323.36 536.02 323.779 539.694C324.197 543.367 323.23 547.065 321.067 550.063C318.904 553.062 315.7 555.146 312.082 555.907C308.463 556.669 304.691 556.053 301.503 554.181C298.315 552.309 295.939 549.314 294.842 545.784C293.744 542.253 294.003 538.44 295.567 535.09C297.132 531.74 299.89 529.094 303.302 527.67C305.02 526.935 306.866 526.547 308.735 526.526" fill="white"/>
<path d="M484.416 263.203C479.822 267.797 473.968 270.926 467.596 272.194C461.223 273.461 454.618 272.811 448.615 270.324C442.612 267.838 437.481 263.627 433.871 258.225C430.261 252.822 428.334 246.471 428.334 239.973C428.334 233.476 430.261 227.124 433.871 221.721C437.481 216.319 442.612 212.108 448.615 209.622C454.618 207.135 461.223 206.485 467.596 207.752C473.968 209.02 479.822 212.149 484.416 216.744C487.475 219.79 489.901 223.41 491.557 227.396C493.213 231.383 494.065 235.657 494.065 239.973C494.065 244.29 493.213 248.564 491.557 252.55C489.901 256.536 487.475 260.156 484.416 263.203" fill="#99644C"/>
<path d="M484.416 325.101C479.822 329.696 473.968 332.824 467.596 334.092C461.223 335.36 454.618 334.709 448.615 332.223C442.612 329.736 437.481 325.526 433.871 320.123C430.261 314.721 428.334 308.369 428.334 301.872C428.334 295.374 430.261 289.022 433.871 283.62C437.481 278.217 442.612 274.007 448.615 271.52C454.618 269.034 461.223 268.383 467.596 269.651C473.968 270.919 479.822 274.048 484.416 278.642C487.475 281.688 489.901 285.308 491.557 289.295C493.213 293.281 494.065 297.555 494.065 301.872C494.065 306.188 493.213 310.462 491.557 314.448C489.901 318.435 487.475 322.055 484.416 325.101" fill="#99644C"/>
<path d="M484.416 387.287C479.822 391.881 473.968 395.01 467.596 396.278C461.223 397.545 454.618 396.895 448.615 394.408C442.612 391.922 437.481 387.711 433.871 382.309C430.261 376.906 428.334 370.555 428.334 364.057C428.334 357.56 430.261 351.208 433.871 345.805C437.481 340.403 442.612 336.192 448.615 333.706C454.618 331.219 461.223 330.569 467.596 331.836C473.968 333.104 479.822 336.233 484.416 340.828C487.475 343.874 489.901 347.494 491.557 351.48C493.213 355.467 494.065 359.741 494.065 364.057C494.065 368.374 493.213 372.648 491.557 376.634C489.901 380.62 487.475 384.24 484.416 387.287" fill="#99644C"/>
<path d="M484.416 449.183C479.822 453.778 473.968 456.907 467.596 458.174C461.223 459.442 454.618 458.791 448.615 456.305C442.612 453.819 437.481 449.608 433.871 444.205C430.261 438.803 428.334 432.451 428.334 425.954C428.334 419.456 430.261 413.104 433.871 407.702C437.481 402.299 442.612 398.089 448.615 395.602C454.618 393.116 461.223 392.465 467.596 393.733C473.968 395.001 479.822 398.13 484.416 402.724C487.475 405.77 489.901 409.39 491.557 413.377C493.213 417.363 494.065 421.637 494.065 425.954C494.065 430.27 493.213 434.544 491.557 438.53C489.901 442.517 487.475 446.137 484.416 449.183" fill="#99644C"/>
<path d="M218.102 480.209V593.856L64.0002 567.696V361.559C64.0081 337.724 71.5648 314.504 85.5864 295.23L153.917 201.879C155.986 199.134 159.059 197.322 162.462 196.839C165.866 196.357 169.321 197.244 172.072 199.306C182.251 207.319 189.269 218.673 191.885 231.36C194.501 244.048 192.546 257.252 186.367 268.638L165.353 307.237V395.723L167.639 396.867C182.923 404.747 195.728 416.704 204.634 431.414C213.54 446.124 218.201 463.012 218.099 480.208" fill="#99644C"/>
<path d="M383.64 568.383L368.345 588.965C360.905 598.97 351.223 607.092 340.076 612.677C328.929 618.263 316.628 621.158 304.16 621.129H64.0002V568.383H383.64Z" fill="#99644C"/>
<circle cx="257.159" cy="454.877" r="25.8873" fill="white"/>
<rect x="294.995" y="448.902" width="99.5666" height="11.948" fill="white"/>
<rect x="294.995" y="468.816" width="75.6706" height="11.948" fill="white"/>
<rect x="294.995" y="428.989" width="39.8266" height="11.948" fill="white"/>
<g style="mix-blend-mode:multiply">
<circle cx="310.925" cy="253.752" r="51.7746" fill="#A0BFF9"/>
</g>
<path d="M343.512 260.557C345.046 262.146 346.082 263.966 346.372 266.016C347.021 268.746 346.616 270.677 346.027 273.152C346.023 273.514 345.84 273.698 345.929 273.97C345.828 274.442 345.672 274.901 345.463 275.337C345.367 275.792 345.184 275.975 345.09 276.431C344.997 276.704 344.904 276.796 344.811 277.069C344.101 278.43 343.169 279.667 342.054 280.726L337.838 284.942C336.749 286.023 335.518 286.951 334.181 287.699C333.908 287.792 333.815 287.885 333.543 287.978C333.198 288.156 332.829 288.282 332.449 288.351C331.985 288.479 331.528 288.634 331.082 288.817C330.826 288.938 330.538 288.973 330.264 288.915C327.747 289.421 325.155 289.288 322.727 288.526C320.599 287.876 318.674 286.707 317.124 285.123L278.666 246.665C277.47 245.477 276.471 244.107 275.703 242.603C274.907 241.089 274.427 239.425 274.292 237.71L274.202 237.62C273.9 235.423 274.113 233.176 274.825 231.057C275.538 228.938 276.729 227.006 278.307 225.411L282.888 220.829C284.467 219.228 286.398 218.021 288.522 217.307C290.645 216.593 292.9 216.394 295.098 216.725L295.188 216.815C296.879 217.061 298.525 217.535 300.081 218.225C301.579 219.001 302.949 220 304.143 221.188L342.691 259.736L343.512 260.557Z" fill="white"/>
<path d="M334.622 252.569L336.873 247.252C337.084 246.781 337.136 246.254 337.023 245.75C336.909 245.246 336.635 244.792 336.242 244.457C335.967 244.185 335.633 243.98 335.266 243.858C334.899 243.736 334.509 243.699 334.126 243.751C333.743 243.804 333.376 243.943 333.056 244.159C332.735 244.375 332.468 244.662 332.276 244.998L331.284 246.711C331.061 247.196 330.984 247.737 331.064 248.265C331.145 248.794 331.378 249.287 331.736 249.685L334.621 252.57L334.622 252.569Z" fill="white"/>
<path d="M338.139 259.33L304.514 225.705C309.371 237.468 317.912 247.337 328.856 253.833L338.139 259.33Z" fill="#24313A"/>
<path d="M309.741 277.449L304.424 279.7C303.953 279.911 303.426 279.963 302.922 279.85C302.419 279.736 301.965 279.462 301.63 279.069C301.358 278.794 301.153 278.46 301.031 278.093C300.909 277.726 300.872 277.336 300.924 276.953C300.977 276.569 301.116 276.203 301.332 275.883C301.548 275.562 301.835 275.295 302.171 275.103L303.884 274.111C304.361 273.851 304.91 273.755 305.447 273.836C305.984 273.918 306.479 274.173 306.858 274.563L309.743 277.448L309.741 277.449Z" fill="white"/>
<path d="M337.056 265.459L322.452 280.063C322.118 280.306 321.735 280.473 321.331 280.554C320.926 280.636 320.509 280.629 320.107 280.535C319.705 280.441 319.328 280.262 319.002 280.009C318.675 279.757 318.407 279.437 318.215 279.072L311.544 266.632L323.804 254.372L336.244 261.042C336.604 261.24 336.917 261.512 337.165 261.839C337.413 262.166 337.589 262.541 337.683 262.94C337.776 263.34 337.785 263.754 337.708 264.157C337.631 264.56 337.47 264.943 337.236 265.279L337.056 265.459Z" fill="#24313A"/>
<path d="M316.592 280.875L282.968 247.25C294.73 252.108 304.599 260.649 311.095 271.592L316.592 280.875Z" fill="#24313A"/>
<path d="M282.698 236.342C280.626 239.858 281.346 243.824 284.411 245.266L292.525 249.053L306.315 235.262L302.528 227.149C300.996 224.174 297.3 223.364 293.604 225.436C289.123 228.115 285.375 231.862 282.697 236.344" fill="#24313A"/>
<path d="M306.136 224.082C307.798 224.488 309.322 225.328 310.553 226.516L317.404 233.368C318.593 234.599 319.433 236.123 319.839 237.785L306.136 224.082Z" fill="white"/>
<path d="M281.256 248.964C281.662 250.626 282.502 252.15 283.69 253.381L290.541 260.232C291.773 261.422 293.298 262.263 294.962 262.67L281.256 248.964Z" fill="white"/>
</g>
<defs>
<clipPath id="clip0">
<rect width="430" height="543.218" fill="white" transform="translate(64 78)"/>
</clipPath>
</defs>
</svg>
